<?xml version="1.0" standalone="no"?>
<!DOCTYPE svg PUBLIC "-//W3C//DTD SVG 1.1//EN" "http://www.w3.org/Graphics/SVG/1.1/DTD/svg11.dtd" >
<svg xmlns="http://www.w3.org/2000/svg">
<metadata></metadata>
<defs>
<font id="newjuneregularregular" horiz-adv-x="1208" >
<font-face units-per-em="2048" ascent="1638" descent="-410" />
<missing-glyph horiz-adv-x="530" />
<glyph horiz-adv-x="0" />
<glyph horiz-adv-x="0" />
<glyph horiz-adv-x="682" />
<glyph unicode="&#xd;" horiz-adv-x="530" />
<glyph unicode=" "  horiz-adv-x="530" />
<glyph unicode="&#x09;" horiz-adv-x="530" />
<glyph unicode="&#xa0;" horiz-adv-x="530" />
<glyph unicode="!" horiz-adv-x="425" d="M115 96q0 54 27.5 84.5t74.5 30.5t74.5 -30.5t27.5 -84.5t-27 -84t-75 -30t-75 30t-27 84zM139 461v1063h156v-1035z" />
<glyph unicode="&#x22;" horiz-adv-x="759" d="M123 1563h166l-17 -410h-135zM471 1563h166l-14 -410h-136z" />
<glyph unicode="#" horiz-adv-x="1445" d="M68 428l22 139h279l71 371h-290l22 137h295l86 449h149l-86 -449h347l86 449h147l-86 -449h281l-23 -137h-281l-69 -371h291l-23 -139h-295l-80 -428h-149l82 428h-352l-84 -428h-152l84 428h-272zM518 567h352l70 371h-350z" />
<glyph unicode="$" d="M102 106l35 146l99 -35q261 -92 423 -92q59 0 112.5 15.5t98.5 47t72 85.5t27 124q0 103 -54.5 164t-175.5 90l-280 68q-348 83 -348 393q0 101 37 182.5t98.5 131t137 76t157.5 28.5v246h147v-252q121 -13 330 -84l96 -33l-35 -145l-98 34q-86 30 -140.5 47t-130.5 31.5 t-143 14.5q-61 0 -114.5 -15.5t-97.5 -46.5t-69.5 -85t-25.5 -124q0 -102 53 -162.5t174 -89.5l279 -67q352 -84 352 -396q0 -100 -36.5 -179.5t-98 -129t-136.5 -77t-159 -31.5v-250h-147v254q-130 13 -342 84z" />
<glyph unicode="%" horiz-adv-x="1845" d="M82 1159q0 184 102.5 290.5t276.5 106.5q175 0 275 -106t100 -291q0 -186 -102.5 -292.5t-276.5 -106.5q-175 0 -275 106.5t-100 292.5zM217 0l1233 1524h166l-1231 -1524h-168zM221 1159q0 -134 62.5 -208t177.5 -74q116 0 176.5 73t60.5 209q0 132 -63 205.5t-178 73.5 t-175.5 -73.5t-60.5 -205.5zM1012 369q0 184 102.5 290.5t276.5 106.5q175 0 274.5 -106t99.5 -291q0 -186 -102.5 -293t-276.5 -107q-175 0 -274.5 107t-99.5 293zM1151 369q0 -134 62.5 -208.5t177.5 -74.5q116 0 176.5 73.5t60.5 209.5q0 132 -63.5 205t-178.5 73 t-175 -73t-60 -205z" />
<glyph unicode="&#x26;" horiz-adv-x="1435" d="M102 375q0 276 320 422q-52 57 -79.5 90.5t-58 81.5t-43 98t-12.5 109q0 121 60.5 206.5t157 125.5t217.5 40q185 0 298 -91t113 -261q0 -152 -96 -255t-317 -193l380 -418q49 54 79 163t30 234v182h147v-190q0 -139 -41.5 -275.5t-113.5 -216.5l190 -227h-192l-105 127 q-79 -68 -206.5 -110t-251.5 -42q-115 0 -207 32t-150 87.5t-88.5 127t-30.5 153.5zM260 379q0 -51 18 -97.5t54.5 -85.5t100 -62t145.5 -23q98 0 200 32.5t164 85.5l-428 465q-138 -57 -196 -134.5t-58 -180.5zM377 1176q0 -81 43 -149.5t151 -178.5q188 70 274.5 147.5 t86.5 198.5q0 100 -67.5 162.5t-200.5 62.5q-142 0 -214.5 -66.5t-72.5 -176.5z" />
<glyph unicode="'" horiz-adv-x="421" d="M123 1563h176l-16 -410h-144z" />
<glyph unicode="(" horiz-adv-x="567" d="M74 698q0 149 14.5 270.5t39 206t60.5 148.5t74.5 101.5t86 60.5t90 31t91.5 8v-133q-27 -2 -50.5 -8t-55.5 -24.5t-57.5 -47.5t-52 -81.5t-44.5 -122.5t-29.5 -175t-11.5 -234q0 -135 11.5 -244t29.5 -181.5t44.5 -127t52 -84t58 -48t55 -24t50.5 -7.5v-134 q-44 0 -85 8.5t-87.5 33.5t-86 64t-77 105.5t-63.5 153t-41.5 210.5t-15.5 275z" />
<glyph unicode=")" horiz-adv-x="567" d="M45 -18q28 2 50.5 7.5t55 24t58 48t52 84t44.5 127t29.5 181.5t11.5 244q0 129 -11.5 234t-29.5 175t-44.5 122.5t-52 81.5t-57.5 47.5t-55.5 24.5t-50.5 8v133q70 0 128.5 -16.5t122 -69t106.5 -140t71.5 -241t28.5 -359.5q0 -151 -15.5 -275t-41.5 -210.5t-63.5 -153 t-77.5 -105.5t-86.5 -64t-87.5 -33.5t-85 -8.5v134z" />
<glyph unicode="*" horiz-adv-x="1128" d="M106 1174l50 153l356 -145l-31 381h168l-31 -381l357 143l49 -154l-371 -88l248 -295l-137 -96l-199 334l-198 -332l-138 97l250 294z" />
<glyph unicode="+" d="M119 530v146h405v430h150v-430h413v-146h-413v-434h-150v434h-405z" />
<glyph unicode="," horiz-adv-x="425" d="M94 -84l78 297h170l-94 -336q-18 -63 -80 -63q-45 0 -65 29.5t-9 72.5z" />
<glyph unicode="-" horiz-adv-x="845" d="M123 594v149h600v-149h-600z" />
<glyph unicode="." horiz-adv-x="425" d="M113 96q0 54 27.5 84.5t74.5 30.5t74.5 -30.5t27.5 -84.5t-27 -84t-75 -30t-75 30t-27 84z" />
<glyph unicode="/" horiz-adv-x="839" d="M23 0l641 1524h153l-637 -1524h-157z" />
<glyph unicode="0" d="M137 483v551q0 237 124 371.5t353 134.5t346 -134t117 -378v-539q0 -244 -117 -378t-346 -134t-353 134.5t-124 371.5zM287 492q0 -377 321 -377q322 0 322 377v534q0 377 -322 377q-321 0 -321 -377v-534z" />
<glyph unicode="1" d="M139 0v141h455v1239h-98q-158 0 -232 -37l-39 138q38 21 114.5 32t147.5 11h121q73 0 111.5 -36.5t38.5 -103.5v-1243h368v-141h-987z" />
<glyph unicode="2" d="M125 100q0 56 45 101l528 501q125 117 179.5 210t54.5 206q0 74 -24 128t-68 85t-97.5 45.5t-119.5 14.5q-137 0 -371 -70l-90 -27l-31 142l88 26q249 76 408 76q92 0 171.5 -23t144.5 -71.5t102.5 -133t37.5 -196.5q0 -125 -61 -247t-209 -259l-510 -473h784v-135h-866 q-45 0 -70.5 27.5t-25.5 72.5z" />
<glyph unicode="3" d="M102 86l33 141l94 -26q275 -76 402 -76q162 0 247 68t85 188q0 107 -89 205l-108 112h-291v136h293l84 116q68 106 68 209q0 109 -71 171.5t-224 62.5q-114 0 -369 -70l-90 -25l-31 142l88 24q265 74 404 74q217 0 330.5 -99t113.5 -278q0 -130 -84 -260l-94 -127 l115 -121q106 -115 106 -264q0 -184 -131 -294.5t-348 -110.5q-163 0 -440 77z" />
<glyph unicode="4" d="M74 385q0 44 35 88l651 993q46 70 123 70q106 0 106 -109v-1005h182v-135h-182v-287h-149v287h-670q-48 0 -72 26.5t-24 71.5zM252 422h588v901z" />
<glyph unicode="5" d="M123 80l31 141l90 -24q90 -25 134.5 -36t109.5 -22.5t114 -11.5q177 0 268 97t91 261q0 346 -363 346q-123 0 -264 -40l-144 -41v774h852v-148h-710v-450q168 47 286 47q232 0 362 -121.5t130 -366.5q0 -227 -136.5 -364t-369.5 -137q-85 0 -173 17t-220 54z" />
<glyph unicode="6" d="M129 498v553q0 215 124.5 350t342.5 135q143 0 399 -70l88 -24l-30 -142l-90 25q-255 68 -363 68q-161 0 -240 -90t-79 -252v-142q200 64 331 64q247 0 373.5 -126.5t126.5 -361.5q0 -221 -126 -359t-359 -138q-231 0 -364.5 140t-133.5 370zM281 506q0 -177 91.5 -279 t258.5 -102q159 0 243 96.5t84 263.5q0 344 -360 344q-104 0 -317 -55v-268z" />
<glyph unicode="7" d="M135 1384v140h881q51 0 78.5 -25t27.5 -69q0 -36 -22 -91l-557 -1339h-166l581 1384h-823z" />
<glyph unicode="8" d="M92 379q0 154 107 270l110 121l-90 127q-84 130 -84 258q0 178 125 281.5t342 103.5q223 0 348 -103.5t125 -281.5q0 -128 -84 -258l-90 -127l111 -121q106 -115 106 -270q0 -185 -136 -293.5t-372 -108.5q-237 0 -377.5 109t-140.5 293zM244 377q0 -119 94 -188.5 t268 -69.5q177 0 269 69t92 189q0 108 -88 205l-105 112h-338l-104 -112q-88 -97 -88 -205zM287 1155q0 -104 67 -209l80 -117h342l80 117q68 106 68 209q0 108 -80 175t-240 67q-159 0 -238 -67t-79 -175z" />
<glyph unicode="9" d="M102 1036q0 221 126.5 360.5t359.5 139.5q230 0 363.5 -140t133.5 -370v-553q0 -215 -124.5 -350t-342.5 -135q-147 0 -399 69l-88 25l31 141l90 -24q255 -68 362 -68q161 0 240.5 90t79.5 252v141q-197 -63 -332 -63q-248 0 -374 125t-126 360zM256 1036 q0 -342 360 -342q101 0 318 56v268q0 177 -91.5 279t-258.5 102q-159 0 -243.5 -98t-84.5 -265z" />
<glyph unicode=":" horiz-adv-x="425" d="M113 96q0 54 27.5 84.5t74.5 30.5t74.5 -30.5t27.5 -84.5t-27 -84t-75 -30t-75 30t-27 84zM113 985q0 54 27.5 84.5t74.5 30.5t74.5 -30.5t27.5 -84.5t-27.5 -84.5t-74.5 -30.5t-74.5 30.5t-27.5 84.5z" />
<glyph unicode=";" horiz-adv-x="425" d="M94 -84l78 297h170l-94 -336q-18 -63 -80 -63q-45 0 -65 29.5t-9 72.5zM145 985q0 54 27.5 84.5t75.5 30.5q47 0 74.5 -30.5t27.5 -84.5t-27.5 -84.5t-74.5 -30.5q-48 0 -75.5 30.5t-27.5 84.5z" />
<glyph unicode="&#x3c;" d="M102 604q0 75 74 105l934 374v-170l-834 -313l834 -311v-164l-934 373q-74 27 -74 106z" />
<glyph unicode="=" d="M119 367v149h968v-149h-968zM119 707v149h968v-149h-968z" />
<glyph unicode="&#x3e;" d="M100 125v164l834 311l-834 313v170l934 -374q74 -30 74 -105q0 -79 -74 -106z" />
<glyph unicode="?" horiz-adv-x="935" d="M66 1450l86 27q167 53 329 53q176 0 282.5 -89.5t106.5 -246.5q0 -109 -38 -184t-117 -158l-189 -197v-168l-145 -26v127q0 70 12 104t56 82l147 156q73 80 100 130.5t27 131.5q0 92 -61.5 144.5t-182.5 52.5q-127 0 -297 -48l-88 -24zM352 96q0 54 27.5 84.5t75.5 30.5 q47 0 74.5 -30.5t27.5 -84.5t-27 -84t-75 -30t-75.5 30t-27.5 84z" />
<glyph unicode="@" horiz-adv-x="1910" d="M180 721q0 178 61 331t168.5 260.5t259 168.5t326.5 61q211 0 381 -90.5t266.5 -253t96.5 -367.5q0 -113 -33.5 -212t-89.5 -165.5t-128 -104.5t-149 -38q-50 0 -112.5 28t-87.5 28q-40 0 -123.5 -16.5t-136.5 -16.5q-158 0 -242 97t-84 247q0 122 47.5 221.5t145.5 162 t231 62.5q75 0 211 -16l8 72h129l-94 -709q58 -45 119 -45q96 0 176 112.5t80 295.5q0 172 -82.5 304.5t-221 202.5t-307.5 70q-151 0 -278 -51.5t-214.5 -143t-136.5 -219t-49 -276.5q0 -178 69 -318.5t203.5 -222.5t313.5 -82q103 0 250.5 40t216.5 40q68 0 127 -33 l96 -57l-51 -100l-94 45q-40 18 -86 18q-49 0 -123.5 -18.5t-166 -37t-181.5 -18.5q-163 0 -298.5 58.5t-225 159t-138.5 236t-49 290.5zM686 674q0 -101 52 -164.5t157 -63.5q50 0 209 29l70 522q-115 15 -197 15q-75 0 -132.5 -27.5t-91 -75.5t-50.5 -107.5t-17 -127.5z " />
<glyph unicode="A" horiz-adv-x="1402" d="M31 0l553 1452q30 86 123 86q91 0 122 -84l543 -1454h-168l-131 344h-747l-131 -344h-164zM371 477h657l-323 897z" />
<glyph unicode="B" horiz-adv-x="1388" d="M164 139v1250q0 63 38 99t107 36h504q189 0 296.5 -93t107.5 -272q0 -128 -84 -258l-93 -127l121 -125q115 -118 115 -268q0 -176 -120.5 -278.5t-330.5 -102.5h-512q-69 0 -109 38t-40 101zM317 133h519q140 0 214 64.5t74 175.5q0 112 -94 209l-115 118h-598v-567z M317 831h596l84 119q68 106 68 209q0 234 -254 234h-494v-562z" />
<glyph unicode="C" horiz-adv-x="1374" d="M113 758q0 155 34 283t94.5 218t145.5 152t186.5 91.5t217.5 29.5q87 0 177.5 -19t221.5 -59l106 -33l-30 -143l-113 35q-238 73 -360 73q-245 0 -381 -154.5t-136 -473.5q0 -318 137.5 -473.5t381.5 -155.5q116 0 358 74l113 35l30 -144l-106 -33q-252 -77 -399 -77 q-150 0 -271.5 45.5t-213.5 137t-142.5 242t-50.5 349.5z" />
<glyph unicode="D" horiz-adv-x="1495" d="M164 139v1245q0 63 40 101.5t109 38.5h392q309 0 493 -204.5t184 -561.5q0 -178 -50 -321.5t-140.5 -239t-216.5 -146.5t-277 -51h-385q-69 0 -109 38t-40 101zM322 139h370q254 0 393.5 162t139.5 457q0 290 -145 460.5t-402 170.5h-356v-1250z" />
<glyph unicode="E" horiz-adv-x="1261" d="M164 139v1245q0 63 40 101.5t109 38.5h830v-140h-821v-536h722v-137h-722v-572h827v-139h-836q-69 0 -109 38t-40 101z" />
<glyph unicode="F" horiz-adv-x="1183" d="M164 0v1384q0 63 40 101.5t109 38.5h809v-140h-800v-565h733v-135h-733v-684h-158z" />
<glyph unicode="G" horiz-adv-x="1482" d="M113 756q0 193 54 343t150 243t223.5 140.5t280.5 47.5q91 0 185.5 -19t232.5 -59l111 -33l-33 -143l-117 35q-253 73 -381 73q-259 0 -402 -154.5t-143 -473.5q0 -160 41 -282t116.5 -198.5t177 -114.5t227.5 -38q154 0 362 41v424h-379v135h383q69 0 108.5 -38 t39.5 -101v-398q0 -63 -29.5 -96t-95.5 -51q-205 -55 -389 -55q-157 0 -286 45.5t-228 137t-154 241.5t-55 348z" />
<glyph unicode="H" horiz-adv-x="1464" d="M164 0v1524h155v-682h826v682h155v-1524h-155v707h-826v-707h-155z" />
<glyph unicode="I" horiz-adv-x="485" d="M164 0v1524h158v-1524h-158z" />
<glyph unicode="J" horiz-adv-x="745" d="M16 27l23 143q146 -35 213 -35q100 0 142 56t42 178v1155h156v-1166q0 -178 -89.5 -272t-252.5 -94q-76 0 -234 35z" />
<glyph unicode="K" horiz-adv-x="1339" d="M164 0v1524h153v-901l746 901h203l-457 -531l479 -993h-168l-428 872l-221 -258q-45 -53 -62.5 -74.5t-44.5 -64.5t-37 -84t-10 -92v-299h-153z" />
<glyph unicode="L" horiz-adv-x="1179" d="M164 139v1385h160v-1383h763v-141h-774q-69 0 -109 38t-40 101z" />
<glyph unicode="M" horiz-adv-x="1773" d="M164 0v1419q0 60 34 87.5t89 27.5q112 0 145 -98l455 -1280l475 1282q38 96 133 96q50 0 82.5 -28t32.5 -87v-1419h-144v1327l-473 -1264q-26 -71 -110 -71q-89 0 -113 71l-465 1266v-1329h-141z" />
<glyph unicode="N" horiz-adv-x="1509" d="M164 0v1427q0 55 28.5 83t77.5 28q73 0 117 -65l813 -1258v1309h146v-1424q0 -55 -29 -82.5t-78 -27.5q-73 0 -117 65l-813 1258v-1313h-145z" />
<glyph unicode="O" horiz-adv-x="1624" d="M113 758q0 182 51.5 328.5t144.5 244t222.5 149.5t285.5 52q316 0 505 -204t189 -570q0 -185 -51.5 -332t-144.5 -243.5t-222.5 -147.5t-285.5 -51q-316 0 -505 204t-189 570zM270 758q0 -305 146.5 -473t400.5 -168q253 0 394 166.5t141 474.5q0 303 -146 470t-399 167 t-395 -166.5t-142 -470.5z" />
<glyph unicode="P" horiz-adv-x="1288" d="M164 0v1384q0 63 40 101.5t109 38.5h441q195 0 318.5 -124.5t123.5 -336.5q0 -214 -128 -337.5t-337 -123.5h-416v-602h-151zM315 735h416q150 0 236 87t86 243q0 151 -84.5 239.5t-223.5 88.5h-430v-658z" />
<glyph unicode="Q" horiz-adv-x="1583" d="M113 758q0 182 51.5 328.5t144.5 244t222.5 149.5t285.5 52q316 0 504 -204t188 -570q0 -254 -104 -428.5t-295 -253.5q17 -9 46 -21.5t109 -33.5t148 -21h68v-131h-68q-92 0 -175 20.5t-135.5 45t-126.5 45t-151 20.5q-160 0 -290.5 49t-224.5 143.5t-145.5 238.5 t-51.5 327zM270 758q0 -304 146 -464.5t401 -160.5q254 0 394.5 159.5t140.5 465.5q0 303 -146 470t-399 167t-395 -166.5t-142 -470.5z" />
<glyph unicode="R" horiz-adv-x="1349" d="M164 0v1389q0 63 38 99t107 36h490q198 0 308 -105t110 -303q0 -145 -115 -295l-121 -155l317 -666h-170l-290 621h-519v-621h-155zM319 752h560l86 118q100 141 100 244q0 279 -268 279h-478v-641z" />
<glyph unicode="S" horiz-adv-x="1306" d="M123 106l37 146l104 -35q272 -92 453 -92q62 0 117 15.5t101.5 47t73.5 85.5t27 124q0 103 -57 164t-184 90l-295 68q-178 39 -273.5 137.5t-95.5 257.5q0 105 39.5 187.5t107 132t150 75t174.5 25.5q124 0 231 -22.5t254 -69.5l103 -33l-37 -145l-104 34 q-133 45 -236.5 69t-206.5 24q-87 0 -156 -26t-115 -89t-46 -156q0 -102 56 -162.5t183 -89.5l295 -67q371 -81 371 -398q0 -85 -26 -155t-71 -118.5t-106 -81.5t-128.5 -48.5t-141.5 -15.5q-126 0 -239.5 22t-256.5 68z" />
<glyph unicode="T" horiz-adv-x="1261" d="M68 1384v140h1134v-140h-487v-1384h-160v1384h-487z" />
<glyph unicode="U" horiz-adv-x="1478" d="M154 541v983h155v-983q0 -207 108 -317.5t322 -110.5q430 0 430 428v983h156v-983q0 -267 -153 -418.5t-433 -151.5t-432.5 151.5t-152.5 418.5z" />
<glyph unicode="V" horiz-adv-x="1366" d="M31 1524h170l485 -1352l485 1352h164l-542 -1456q-27 -80 -115 -80q-86 0 -113 80z" />
<glyph unicode="W" horiz-adv-x="1865" d="M51 1524h150l245 -1342l379 1264q21 78 111 78t111 -78l370 -1266l250 1344h148l-273 -1446q-9 -45 -40 -69.5t-79 -24.5q-96 0 -120 86l-371 1292l-381 -1292q-12 -41 -43 -62.5t-76 -21.5q-47 0 -76 24.5t-37 69.5z" />
<glyph unicode="X" horiz-adv-x="1429" d="M92 0l524 768l-518 756h189l436 -641l430 641h178l-510 -752l516 -772h-186l-434 659l-443 -659h-182z" />
<glyph unicode="Y" horiz-adv-x="1327" d="M20 1524h181l473 -723l456 723h177l-557 -862v-662h-160v657z" />
<glyph unicode="Z" horiz-adv-x="1323" d="M113 104q0 40 30 84l885 1201h-893v135h963q51 0 76.5 -28.5t25.5 -76.5q0 -39 -31 -84l-880 -1200h921v-135h-995q-51 0 -76.5 28t-25.5 76z" />
<glyph unicode="[" horiz-adv-x="567" d="M145 -133v1657h383v-133h-229v-1391h229v-133h-383z" />
<glyph unicode="\" horiz-adv-x="839" d="M23 1524h153l641 -1524h-158z" />
<glyph unicode="]" horiz-adv-x="567" d="M45 0h229v1391h-229v133h383v-1657h-383v133z" />
<glyph unicode="^" d="M125 88l381 954q27 70 96 70q70 0 98 -70l383 -954h-170l-313 825l-309 -825h-166z" />
<glyph unicode="_" horiz-adv-x="1128" d="M-27 -199h1174v-137h-1174v137z" />
<glyph unicode="`" horiz-adv-x="1110" d="M377 1563h223l166 -160q27 -27 27 -57q0 -24 -19.5 -46t-50.5 -22q-29 0 -59 27z" />
<glyph unicode="a" horiz-adv-x="1224" d="M102 291q0 90 35.5 157t98.5 104.5t139 55t168 17.5h338v127q0 233 -263 233q-125 0 -354 -63l-88 -25l-29 137l86 25q237 67 388 67q87 0 158.5 -21t128 -65t87.5 -117t31 -171v-576l137 -82l-59 -114l-100 59q-47 23 -94 23l-52 -7l-80 -20q-181 -49 -309 -49 q-173 0 -270 81t-97 224zM254 299q0 -180 235 -180q107 0 269 39l123 28v310h-340q-141 0 -214 -47t-73 -150z" />
<glyph unicode="b" horiz-adv-x="1222" d="M154 188v1358l147 31v-518q195 63 328 63q244 0 367.5 -146t123.5 -423q0 -257 -136.5 -409t-373.5 -152q-135 0 -336 49q-120 28 -120 147zM301 176q198 -45 303 -45q96 0 167 31t114 89t63.5 133.5t20.5 170.5q0 426 -359 426q-112 -4 -309 -55v-750z" />
<glyph unicode="c" horiz-adv-x="1077" d="M102 557q0 274 136 421.5t364 147.5q100 0 313 -57l91 -25l-29 -139l-92 25q-201 53 -277 53q-348 0 -348 -426t350 -426q74 0 275 53l92 25l29 -139l-91 -25q-213 -57 -313 -57q-233 0 -366.5 141t-133.5 428z" />
<glyph unicode="d" horiz-adv-x="1222" d="M102 553q0 271 130.5 420t371.5 149q108 0 318 -63v487l147 31v-1389q0 -119 -121 -147q-210 -49 -344 -49q-239 0 -370.5 147t-131.5 414zM254 555q0 -95 20.5 -170.5t63 -133.5t113.5 -89t167 -31q113 0 304 45v750q-204 52 -310 55q-358 0 -358 -426z" />
<glyph unicode="e" horiz-adv-x="1198" d="M102 555q0 117 27 213.5t73.5 162.5t110.5 111.5t137.5 66.5t155.5 21q230 0 365 -138.5t135 -407.5q0 -43 -22 -67.5t-64 -24.5h-762q5 -120 57.5 -203t136 -120.5t191.5 -37.5q118 0 305 57l113 35l31 -135l-109 -35q-202 -65 -346 -65q-245 0 -390 145t-145 422z M258 625h692q0 165 -86.5 270.5t-259.5 105.5q-153 0 -245 -101t-101 -275z" />
<glyph unicode="f" horiz-adv-x="759" d="M41 956v138h182v118q0 172 86 263.5t242 91.5q67 0 229 -33l-22 -139q-142 32 -209 32q-95 0 -135.5 -53t-40.5 -172v-108h354v-138h-354v-956h-150v956h-182z" />
<glyph unicode="g" horiz-adv-x="1224" d="M102 762q0 171 124.5 260.5t340.5 89.5h119q149 0 215 18l238 66l35 -129l-242 -70q4 -3 11.5 -8.5t26 -26.5t33 -45.5t26 -65.5t11.5 -87q0 -172 -122.5 -260t-344.5 -88q-38 0 -70.5 3t-45.5 6l-13 3q27 -30 27 -80q0 -60 -51 -123h389q168 0 257 -70t89 -188 q0 -338 -573 -338q-74 0 -140 9t-127 31t-104.5 54.5t-69.5 83t-26 113.5q0 115 80 213l106 129q39 47 39 96q0 37 -17.5 63.5t-60.5 55.5q-33 22 -56.5 43.5t-49.5 55.5t-40 81t-14 105zM248 762q0 -234 323 -234q148 0 236 56.5t88 177.5q0 227 -324 227q-323 0 -323 -227 zM258 -74q0 -90 93 -132t247 -42q414 0 414 211q0 61 -50 97t-157 36h-477q-70 -75 -70 -170z" />
<glyph unicode="h" horiz-adv-x="1167" d="M154 0v1546l147 31v-520q211 65 328 65q109 0 189 -31t125 -88t66 -126.5t21 -155.5v-721h-147v715q0 124 -62.5 194t-210.5 70q-106 0 -309 -53v-926h-147z" />
<glyph unicode="i" horiz-adv-x="491" d="M143 1454q0 53 28 84t75 31t74.5 -31t27.5 -84t-27.5 -84t-74.5 -31t-75 31t-28 84zM170 0v1114h154v-1114h-154z" />
<glyph unicode="j" horiz-adv-x="505" d="M0 -240q100 3 142 58t42 172v1124h154v-1130q0 -172 -88.5 -263.5t-249.5 -91.5v131zM158 1454q0 53 27.5 84t74.5 31t74.5 -31t27.5 -84t-27.5 -84t-74.5 -31t-74.5 31t-27.5 84z" />
<glyph unicode="k" horiz-adv-x="1128" d="M154 0v1546l147 31v-1079l567 616h197l-371 -389l393 -725h-176l-333 616l-132 -129q-75 -71 -110 -133t-35 -161v-193h-147z" />
<glyph unicode="l" horiz-adv-x="460" d="M154 0v1544l153 33v-1577h-153z" />
<glyph unicode="m" horiz-adv-x="1771" d="M154 0v926q0 59 29 93t89 54q149 49 310 49q184 0 278 -94q212 94 383 94q190 0 282.5 -102t92.5 -279v-741h-150v727q0 123 -55.5 188.5t-185.5 65.5q-75 0 -136.5 -15t-158.5 -51q33 -76 33 -174v-741h-150v727q0 123 -57 189.5t-187 66.5q-121 0 -268 -45v-938h-149z " />
<glyph unicode="n" horiz-adv-x="1193" d="M154 0v926q0 119 118 147q192 49 353 49q110 0 191.5 -30.5t129.5 -86t71 -126.5t23 -158v-721h-149v707q0 130 -65 203t-218 73q-123 0 -305 -45v-938h-149z" />
<glyph unicode="o" horiz-adv-x="1249" d="M102 557q0 270 142.5 419.5t384.5 149.5q241 0 379.5 -149t138.5 -420q0 -270 -142 -419.5t-384 -149.5q-240 0 -379.5 150.5t-139.5 418.5zM258 557q0 -210 97 -324t274 -114t270.5 113.5t93.5 324.5q0 207 -97.5 322.5t-274.5 115.5q-176 0 -269.5 -114.5t-93.5 -323.5 z" />
<glyph unicode="p" horiz-adv-x="1222" d="M154 -381v1307q0 119 120 147q210 49 344 49q239 0 370.5 -147t131.5 -414q0 -271 -130.5 -420t-371.5 -149q-107 0 -317 63v-405zM301 188q204 -52 309 -55q359 0 359 426q0 95 -20.5 170.5t-63.5 133.5t-114 89t-167 31q-112 0 -303 -45v-750z" />
<glyph unicode="q" horiz-adv-x="1222" d="M102 561q0 257 136.5 409t373.5 152q135 0 336 -49q121 -28 121 -147v-1276l-147 -31v436q-195 -63 -328 -63q-244 0 -368 146.5t-124 422.5zM254 559q0 -426 358 -426q113 4 310 55v750q-198 45 -304 45q-96 0 -167 -31t-113.5 -89t-63 -133.5t-20.5 -170.5z" />
<glyph unicode="r" horiz-adv-x="729" d="M154 0v926q0 116 118 147q111 31 199.5 40t237.5 9v-145q-242 0 -404 -43v-934h-151z" />
<glyph unicode="s" horiz-adv-x="1122" d="M123 78l29 137l88 -25q221 -63 370 -63q102 0 168 44t66 132q0 66 -46 106.5t-149 57.5l-221 39q-142 25 -220.5 101.5t-78.5 193.5q0 107 56 182.5t140.5 109t188.5 33.5q105 0 193 -16t208 -51l84 -25l-28 -139l-88 25q-228 65 -371 65q-102 0 -167.5 -43.5 t-65.5 -132.5q0 -66 45.5 -107t148.5 -59l221 -39q143 -25 221 -100.5t78 -192.5q0 -107 -56 -182.5t-140.5 -109t-188.5 -33.5q-105 0 -193 16t-208 51z" />
<glyph unicode="t" horiz-adv-x="835" d="M41 956v138h178v280l150 31v-311h379v-138h-379v-604q0 -119 40.5 -172t135.5 -53q60 0 207 33l22 -140q-157 -32 -235 -32q-320 0 -320 352v616h-178z" />
<glyph unicode="u" horiz-adv-x="1193" d="M154 393v721h149v-706q0 -131 65 -204t218 -73q123 0 305 45v938h149v-926q0 -119 -118 -147q-192 -49 -353 -49q-110 0 -191.5 30.5t-129.5 86t-71 126.5t-23 158z" />
<glyph unicode="v" horiz-adv-x="1105" d="M51 1114h168l330 -971l342 971h164l-391 -1055q-30 -79 -121 -79q-92 0 -119 79z" />
<glyph unicode="w" horiz-adv-x="1617" d="M72 1114h157l179 -958l305 899q21 67 94 67q74 0 96 -67l303 -903l187 962h153l-227 -1042q-9 -44 -39.5 -68t-75.5 -24q-87 0 -114 83l-283 869l-297 -871q-26 -79 -115 -79q-46 0 -76.5 23t-39.5 67z" />
<glyph unicode="x" horiz-adv-x="1122" d="M63 0l408 559l-399 555h184l315 -444l299 444h181l-387 -543l405 -571h-184l-322 459l-321 -459h-179z" />
<glyph unicode="y" horiz-adv-x="1085" d="M49 1114h172l359 -979l305 979h168l-426 -1266q-38 -113 -112.5 -167t-192.5 -54q-83 0 -222 37l23 139q145 -36 201 -36q72 0 108 33t51 94l15 55z" />
<glyph unicode="z" horiz-adv-x="1093" d="M102 98q0 44 35 88l686 799h-694v129h774q48 0 72 -26.5t24 -71.5t-34 -88l-686 -799h722v-129h-802q-48 0 -72.5 26.5t-24.5 71.5z" />
<glyph unicode="{" horiz-adv-x="555" d="M123 643v100q133 0 133 105q0 36 -26.5 104t-53 150t-26.5 153q0 126 77.5 197.5t202.5 71.5h86v-138h-86q-63 0 -99 -34.5t-36 -104.5q0 -75 48 -209.5t48 -189.5q0 -104 -78 -154q38 -24 58 -65.5t20 -89.5q0 -55 -48 -190t-48 -210q0 -70 36 -104.5t99 -34.5h86v-137 h-86q-125 0 -202.5 71t-77.5 197q0 71 26.5 153.5t53 150.5t26.5 104q0 104 -133 104z" />
<glyph unicode="|" horiz-adv-x="444" d="M154 -369v1932h139v-1932h-139z" />
<glyph unicode="}" horiz-adv-x="555" d="M51 0h86q63 0 99 34.5t36 104.5q0 75 -48 210t-48 190q0 48 20 89.5t58 65.5q-78 50 -78 154q0 55 48 189.5t48 209.5q0 70 -36 104.5t-99 34.5h-86v138h86q125 0 203 -71.5t78 -197.5q0 -71 -27 -153t-53.5 -150t-26.5 -104q0 -105 133 -105v-100q-133 0 -133 -104 q0 -36 26.5 -104t53.5 -150.5t27 -153.5q0 -126 -78 -197t-203 -71h-86v137z" />
<glyph unicode="~" d="M92 557q50 127 129.5 186.5t171.5 59.5q99 0 187 -64l125 -92q52 -41 104 -41q53 0 96.5 37t83.5 135l117 -76q-50 -127 -128.5 -186t-170.5 -59q-100 0 -186 63l-125 92q-52 41 -105 41t-97.5 -37t-84.5 -135z" />
<glyph unicode="&#xa1;" horiz-adv-x="425" d="M115 1047q0 54 27 84t75 30t75 -30t27 -84t-27.5 -84.5t-74.5 -30.5t-74.5 30.5t-27.5 84.5zM139 -381v1034l156 29v-1063h-156z" />
<glyph unicode="&#xa2;" d="M133 557q0 245 110.5 388.5t301.5 172.5v260h147v-260q91 -8 254 -51l90 -25l-28 -139l-93 25q-201 53 -276 53q-348 0 -348 -424t350 -424q73 0 274 53l93 25l28 -139l-90 -25q-163 -43 -254 -51v-266h-147v266q-194 24 -303 163.5t-109 397.5z" />
<glyph unicode="&#xa3;" d="M59 68q0 31 16.5 50t47.5 19q54 0 97.5 9t73 23.5t52 37t35.5 45.5t20.5 52.5t10 55t2.5 56.5q0 68 -31 147h-262v131h203q-59 100 -80 137t-48 98t-34.5 107.5t-7.5 108.5q0 180 124.5 286.5t321.5 106.5q159 0 401 -74l89 -26l-31 -142l-90 27q-234 70 -365 70 q-151 0 -224 -67.5t-73 -180.5q0 -28 2.5 -51.5t4.5 -41.5t12 -44.5t15 -41t25 -52t29.5 -56t41 -75t48.5 -87.5h406v-131h-348q24 -71 24 -149q0 -167 -100 -275h338q108 0 158 38.5t53 133.5h125q0 -149 -85.5 -231t-244.5 -82h-688q-31 0 -47.5 18.5t-16.5 49.5z" />
<glyph unicode="&#xa4;" d="M61 555v135h156v146h-156v135h156q0 274 142 422.5t376 148.5q101 0 314 -57l90 -25l-29 -143l-92 24q-197 52 -279 52q-178 0 -269 -102t-91 -320h508v-135h-510v-146h510v-135h-508q0 -218 91 -320t269 -102q86 0 279 51l92 25l29 -143l-90 -25q-213 -57 -314 -57 q-234 0 -376 148.5t-142 422.5h-156z" />
<glyph unicode="&#xa5;" d="M55 1524h187l370 -652l365 652h180l-399 -676h350v-129h-418v-148h418v-131h-418v-440h-162v440h-424v131h424v148h-424v129h355z" />
<glyph unicode="&#xa7;" d="M119 664v387q0 215 127 350t352 135q143 0 399 -70l88 -24l-30 -142l-90 25q-255 68 -363 68q-167 0 -249.5 -90t-82.5 -252v-142q200 64 332 64q490 0 490 -477v-392q0 -215 -128 -350t-352 -135q-143 0 -399 70l-88 24l31 142l90 -25q255 -68 362 -68q167 0 249.5 90 t82.5 252v142q-200 -64 -332 -64q-247 0 -368 123t-121 359zM270 664q0 -162 80.5 -250t272.5 -88q104 0 317 55v115q0 162 -80 247.5t-272 85.5q-105 0 -318 -55v-110z" />
<glyph unicode="&#xa8;" horiz-adv-x="1171" d="M252 1454q0 53 27.5 84t74.5 31t75 -31t28 -84t-28 -84t-75 -31t-74.5 31t-27.5 84zM721 1454q0 53 27.5 84t74.5 31t75 -31t28 -84t-28 -84t-75 -31t-74.5 31t-27.5 84z" />
<glyph unicode="&#xa9;" horiz-adv-x="1910" d="M152 752q0 172 63.5 322t171.5 253.5t255.5 163t311.5 59.5q163 0 309.5 -58.5t255 -161.5t172.5 -253.5t64 -324.5q0 -171 -64 -321t-172 -255.5t-255.5 -166t-309.5 -60.5q-164 0 -311.5 60.5t-255.5 166t-171.5 255.5t-63.5 321zM279 752q0 -145 53 -271.5 t143.5 -215.5t215 -140t263.5 -51q184 0 337.5 86.5t244 243t90.5 348.5q0 149 -53 276t-144 214t-214 136t-261 49q-187 0 -340.5 -84.5t-244 -240t-90.5 -350.5zM557 748q0 207 107.5 318.5t289.5 111.5q80 0 246 -43l72 -19l-29 -112l-74 18q-142 37 -211 37 q-270 0 -270 -311q0 -155 69.5 -232.5t203.5 -77.5q58 0 208 39l74 19l29 -113l-72 -18q-166 -43 -246 -43q-185 0 -291 105.5t-106 320.5z" />
<glyph unicode="&#xaa;" d="M219 913q0 256 340 256h234v74q0 168 -172 168q-94 0 -265 -41l-86 -20l-26 118l90 25q168 47 289 47q135 0 219 -72t84 -225v-432l96 -53l-49 -103l-86 41q-47 21 -131 4l-103 -20q-95 -18 -153 -18q-133 0 -207 70t-74 181zM360 920q0 -140 160 -140q41 0 180 25l93 16 v234h-236q-101 0 -149 -30.5t-48 -104.5z" />
<glyph unicode="&#xab;" horiz-adv-x="1146" d="M113 575q0 52 45 97l297 289h194l-391 -386l391 -385h-194l-297 289q-45 45 -45 96zM539 575q0 52 45 97l297 289h194l-391 -386l391 -385h-194l-297 289q-45 45 -45 96z" />
<glyph unicode="&#xac;" d="M113 623v145h968v-586h-147v441h-821z" />
<glyph unicode="&#xad;" horiz-adv-x="845" d="M123 594v149h600v-149h-600z" />
<glyph unicode="&#xae;" horiz-adv-x="1910" d="M152 752q0 172 63.5 322t171.5 253.5t255.5 163t311.5 59.5q163 0 309.5 -58.5t255 -161.5t172.5 -253.5t64 -324.5q0 -171 -64 -321t-172 -255.5t-255.5 -166t-309.5 -60.5q-164 0 -311.5 60.5t-255.5 166t-171.5 255.5t-63.5 321zM279 752q0 -145 53 -271.5 t143.5 -215.5t215 -140t263.5 -51q184 0 337.5 86.5t244 243t90.5 348.5q0 149 -53 276t-144 214t-214 136t-261 49q-187 0 -340.5 -84.5t-244 -240t-90.5 -350.5zM668 342v725q0 104 118 104h258q110 0 176 -64.5t66 -170.5q0 -82 -43 -150l-72 -104l172 -340h-137 l-145 299h-270v-299h-123zM791 750h284l53 77q29 50 29 109t-34.5 93t-92.5 34h-239v-313z" />
<glyph unicode="&#xaf;" horiz-adv-x="1087" d="M215 1350v145h664v-145h-664z" />
<glyph unicode="&#xb0;" horiz-adv-x="974" d="M109 1167q0 172 106 285t281 113t278 -112.5t103 -285.5q0 -175 -105.5 -287t-279.5 -112q-176 0 -279.5 112.5t-103.5 286.5zM250 1167q0 -128 65 -207t181 -79t178.5 78t62.5 208q0 127 -65 205t-180 78q-117 0 -179.5 -78t-62.5 -205z" />
<glyph unicode="&#xb1;" d="M119 0v137h968v-137h-968zM119 594v143h405v369h150v-369h413v-143h-413v-350h-150v350h-405z" />
<glyph unicode="&#xb4;" horiz-adv-x="1110" d="M408 1346q0 31 26 57l166 160h223l-286 -258q-30 -27 -60 -27q-31 0 -50 21.5t-19 46.5z" />
<glyph unicode="&#xb5;" d="M154 -381v1495h149v-706q0 -130 64.5 -201.5t218.5 -71.5q123 0 305 45v934h149v-921q0 -120 -118 -148q-192 -49 -353 -49q-181 -3 -268 72v-449h-147z" />
<glyph unicode="&#xb6;" horiz-adv-x="1300" d="M94 995q0 112 31 206.5t90.5 167.5t155.5 114t219 41h571v-1905h-143v1776h-295v-1776h-143v848q-119 0 -213 41t-153 113.5t-89.5 167.5t-30.5 206z" />
<glyph unicode="&#xb7;" horiz-adv-x="765" d="M285 752q0 54 27 84t75 30t75 -30t27 -84t-27.5 -84.5t-74.5 -30.5t-74.5 30.5t-27.5 84.5z" />
<glyph unicode="&#xb8;" horiz-adv-x="1087" d="M362 -362l27 88q81 -33 150 -33q96 0 96 63q0 24 -14 39t-38 20.5t-57.5 7t-72.5 -0.5l-9 14l84 164h86l-51 -104q79 0 128.5 -35t49.5 -101q0 -71 -53 -117t-147 -46q-85 0 -179 41z" />
<glyph unicode="&#xba;" d="M213 1104q0 203 104.5 320.5t282.5 117.5t280.5 -117t102.5 -321q0 -203 -104.5 -321.5t-282.5 -118.5q-179 0 -281 117.5t-102 322.5zM352 1104q0 -152 65.5 -238t182.5 -86q119 0 182.5 85.5t63.5 238.5q0 149 -66.5 235t-183.5 86q-118 0 -181 -85t-63 -236z" />
<glyph unicode="&#xbb;" horiz-adv-x="1146" d="M72 190l391 385l-391 386h194l297 -289q45 -45 45 -97q0 -51 -45 -96l-297 -289h-194zM498 190l391 385l-391 386h194l297 -289q45 -45 45 -97q0 -51 -45 -96l-297 -289h-194z" />
<glyph unicode="&#xbf;" horiz-adv-x="935" d="M70 -51q0 109 38 184t117 158l189 196v168l145 27v-127q0 -71 -11.5 -104.5t-55.5 -81.5l-148 -156q-73 -80 -100 -130.5t-27 -131.5q0 -92 61.5 -144.5t182.5 -52.5q130 0 297 47l88 25l28 -133l-86 -27q-167 -53 -329 -53q-176 0 -282.5 89.5t-106.5 246.5zM383 1047 q0 54 27 84t75 30t75.5 -30t27.5 -84t-27.5 -84.5t-75.5 -30.5q-47 0 -74.5 30.5t-27.5 84.5z" />
<glyph unicode="&#xc0;" horiz-adv-x="1402" d="M31 0l553 1452q30 86 123 86q91 0 122 -84l543 -1454h-168l-131 344h-747l-131 -344h-164zM371 477h657l-323 897zM494 1915h223l166 -160q26 -26 26 -57q0 -25 -19 -46.5t-50 -21.5q-30 0 -60 27z" />
<glyph unicode="&#xc1;" horiz-adv-x="1402" d="M31 0l553 1452q30 86 123 86q91 0 122 -84l543 -1454h-168l-131 344h-747l-131 -344h-164zM371 477h657l-323 897zM506 1698q0 31 26 57l166 160h224l-287 -258q-30 -27 -60 -27q-31 0 -50 21.5t-19 46.5z" />
<glyph unicode="&#xc2;" horiz-adv-x="1402" d="M31 0l553 1452q30 86 123 86q91 0 122 -84l543 -1454h-168l-131 344h-747l-131 -344h-164zM336 1649l274 262q45 39 95 39q56 0 92 -39l276 -262h-229l-139 174l-140 -174h-229zM371 477h657l-323 897z" />
<glyph unicode="&#xc3;" horiz-adv-x="1402" d="M31 0l553 1452q30 86 123 86q91 0 122 -84l543 -1454h-168l-131 344h-747l-131 -344h-164zM281 1716q38 111 111.5 164t150.5 53q87 0 149 -51l103 -74q43 -32 86 -32q42 0 77 29.5t66 109.5l115 -64q-37 -110 -110 -163.5t-150 -53.5q-86 0 -152 52l-100 73 q-44 33 -86 33q-92 0 -146 -139zM371 477h657l-323 897z" />
<glyph unicode="&#xc4;" horiz-adv-x="1402" d="M31 0l553 1452q30 86 123 86q91 0 122 -84l543 -1454h-168l-131 344h-747l-131 -344h-164zM371 477h657l-323 897zM371 1769q0 53 27.5 84t74.5 31t74.5 -31t27.5 -84t-27.5 -83.5t-74.5 -30.5t-74.5 30.5t-27.5 83.5zM840 1769q0 53 27.5 84t74.5 31t74.5 -31t27.5 -84 t-27.5 -83.5t-74.5 -30.5t-74.5 30.5t-27.5 83.5z" />
<glyph unicode="&#xc5;" horiz-adv-x="1402" d="M31 0l555 1456q-48 27 -76.5 75t-28.5 107q0 94 64.5 152.5t161.5 58.5t162 -58.5t65 -152.5q0 -60 -29 -107.5t-78 -74.5l545 -1456h-168l-131 344h-747l-131 -344h-164zM371 477h657l-323 897zM584 1638q0 -53 34 -86.5t89 -33.5t89.5 33.5t34.5 86.5q0 51 -34 85 t-90 34t-89.5 -34t-33.5 -85z" />
<glyph unicode="&#xc6;" horiz-adv-x="2093" d="M31 0l577 1401q52 123 180 123h1186v-140h-821v-536h737v-135h-737v-574h827v-139h-835q-69 0 -108.5 38t-39.5 101v203h-659l-137 -342h-170zM389 477h608v907h-241z" />
<glyph unicode="&#xc7;" horiz-adv-x="1374" d="M113 758q0 155 34 283t94.5 218t145.5 152t186.5 91.5t217.5 29.5q87 0 177.5 -19t221.5 -59l106 -33l-30 -143l-113 35q-238 73 -360 73q-245 0 -381 -154.5t-136 -473.5q0 -318 137.5 -473.5t381.5 -155.5q116 0 358 74l113 35l30 -144l-106 -33q-252 -77 -399 -77 q-150 0 -271.5 45.5t-213.5 137t-142.5 242t-50.5 349.5zM586 -362l26 88q81 -33 150 -33q96 0 96 63q0 24 -14 39t-38 20.5t-57.5 7t-72.5 -0.5l-8 14l84 164h86l-52 -104q79 0 129 -35t50 -101q0 -71 -53.5 -117t-147.5 -46q-84 0 -178 41z" />
<glyph unicode="&#xc8;" horiz-adv-x="1261" d="M164 139v1245q0 63 40 101.5t109 38.5h830v-140h-821v-536h722v-137h-722v-572h827v-139h-836q-69 0 -109 38t-40 101zM412 1915h223l166 -160q26 -26 26 -57q0 -25 -19 -46.5t-50 -21.5q-30 0 -60 27z" />
<glyph unicode="&#xc9;" horiz-adv-x="1261" d="M164 139v1245q0 63 40 101.5t109 38.5h830v-140h-821v-536h722v-137h-722v-572h827v-139h-836q-69 0 -109 38t-40 101zM502 1698q0 31 26 57l166 160h224l-287 -258q-30 -27 -60 -27q-31 0 -50 21.5t-19 46.5z" />
<glyph unicode="&#xca;" horiz-adv-x="1261" d="M164 139v1245q0 63 40 101.5t109 38.5h830v-140h-821v-536h722v-137h-722v-572h827v-139h-836q-69 0 -109 38t-40 101zM287 1649l274 262q45 39 94 39q57 0 93 -39l276 -262h-229l-140 174l-139 -174h-229z" />
<glyph unicode="&#xcb;" horiz-adv-x="1261" d="M164 139v1245q0 63 40 101.5t109 38.5h830v-140h-821v-536h722v-137h-722v-572h827v-139h-836q-69 0 -109 38t-40 101zM324 1767q0 53 27.5 84t74.5 31t74.5 -31t27.5 -84t-27.5 -83.5t-74.5 -30.5t-74.5 30.5t-27.5 83.5zM793 1767q0 53 27.5 84t74.5 31t74.5 -31 t27.5 -84t-27.5 -83.5t-74.5 -30.5t-74.5 30.5t-27.5 83.5z" />
<glyph unicode="&#xcc;" horiz-adv-x="485" d="M0 1913h223l166 -160q27 -27 27 -57q0 -24 -19.5 -46t-50.5 -22q-29 0 -59 27zM164 0v1524h158v-1524h-158z" />
<glyph unicode="&#xcd;" horiz-adv-x="485" d="M86 1696q0 30 27 57l166 160h223l-287 -258q-30 -27 -59 -27q-31 0 -50.5 22t-19.5 46zM164 0v1524h158v-1524h-158z" />
<glyph unicode="&#xce;" horiz-adv-x="485" d="M-125 1649l275 262q45 39 94 39q56 0 92 -39l276 -262h-229l-139 174l-140 -174h-229zM164 0v1524h158v-1524h-158z" />
<glyph unicode="&#xcf;" horiz-adv-x="485" d="M-94 1769q0 53 27.5 84t74.5 31t75 -31t28 -84q0 -52 -28 -83t-75 -31t-74.5 30.5t-27.5 83.5zM164 0v1524h158v-1524h-158zM375 1769q0 53 27.5 84t74.5 31t75 -31t28 -84q0 -52 -28 -83t-75 -31t-74.5 30.5t-27.5 83.5z" />
<glyph unicode="&#xd0;" horiz-adv-x="1495" d="M20 713v135h144v536q0 63 40 101.5t109 38.5h392q309 0 493 -204.5t184 -561.5q0 -178 -50 -321.5t-140.5 -239t-216.5 -146.5t-277 -51h-385q-69 0 -109 38t-40 101v574h-144zM322 139h370q254 0 393.5 162t139.5 457q0 290 -145 460.5t-402 170.5h-356v-541h469v-135 h-469v-574z" />
<glyph unicode="&#xd1;" horiz-adv-x="1509" d="M164 0v1427q0 55 28.5 83t77.5 28q73 0 117 -65l813 -1258v1309h146v-1424q0 -55 -29 -82.5t-78 -27.5q-73 0 -117 65l-813 1258v-1313h-145zM338 1718q38 111 111.5 164t150.5 53q88 0 150 -51l102 -74q43 -32 86 -32q42 0 77 29.5t66 109.5l115 -64 q-37 -110 -110 -163.5t-150 -53.5q-86 0 -152 52l-100 73q-44 33 -86 33q-91 0 -145 -139z" />
<glyph unicode="&#xd2;" horiz-adv-x="1624" d="M113 758q0 182 51.5 328.5t144.5 244t222.5 149.5t285.5 52q316 0 505 -204t189 -570q0 -185 -51.5 -332t-144.5 -243.5t-222.5 -147.5t-285.5 -51q-316 0 -505 204t-189 570zM270 758q0 -305 146.5 -473t400.5 -168q253 0 394 166.5t141 474.5q0 303 -146 470t-399 167 t-395 -166.5t-142 -470.5zM561 1913h223l166 -160q27 -27 27 -57q0 -24 -19.5 -46t-50.5 -22q-29 0 -59 27z" />
<glyph unicode="&#xd3;" horiz-adv-x="1624" d="M113 758q0 182 51.5 328.5t144.5 244t222.5 149.5t285.5 52q316 0 505 -204t189 -570q0 -185 -51.5 -332t-144.5 -243.5t-222.5 -147.5t-285.5 -51q-316 0 -505 204t-189 570zM270 758q0 -305 146.5 -473t400.5 -168q253 0 394 166.5t141 474.5q0 303 -146 470t-399 167 t-395 -166.5t-142 -470.5zM664 1696q0 31 26 57l166 160h223l-286 -258q-30 -27 -60 -27q-31 0 -50 21.5t-19 46.5z" />
<glyph unicode="&#xd4;" horiz-adv-x="1624" d="M113 758q0 182 51.5 328.5t144.5 244t222.5 149.5t285.5 52q316 0 505 -204t189 -570q0 -185 -51.5 -332t-144.5 -243.5t-222.5 -147.5t-285.5 -51q-316 0 -505 204t-189 570zM270 758q0 -305 146.5 -473t400.5 -168q253 0 394 166.5t141 474.5q0 303 -146 470t-399 167 t-395 -166.5t-142 -470.5zM451 1649l274 262q45 39 94 39q56 0 92 -39l277 -262h-230l-139 174l-139 -174h-229z" />
<glyph unicode="&#xd5;" horiz-adv-x="1624" d="M113 758q0 182 51.5 328.5t144.5 244t222.5 149.5t285.5 52q316 0 505 -204t189 -570q0 -185 -51.5 -332t-144.5 -243.5t-222.5 -147.5t-285.5 -51q-316 0 -505 204t-189 570zM270 758q0 -305 146.5 -473t400.5 -168q253 0 394 166.5t141 474.5q0 303 -146 470t-399 167 t-395 -166.5t-142 -470.5zM383 1722q38 111 111.5 164t150.5 53q88 0 150 -51l102 -73q44 -33 86 -33t77 29.5t66 109.5l115 -63q-37 -110 -110.5 -164t-149.5 -54q-86 0 -152 52l-100 73q-44 33 -86 33q-91 0 -145 -139z" />
<glyph unicode="&#xd6;" horiz-adv-x="1624" d="M113 758q0 182 51.5 328.5t144.5 244t222.5 149.5t285.5 52q316 0 505 -204t189 -570q0 -185 -51.5 -332t-144.5 -243.5t-222.5 -147.5t-285.5 -51q-316 0 -505 204t-189 570zM270 758q0 -305 146.5 -473t400.5 -168q253 0 394 166.5t141 474.5q0 303 -146 470t-399 167 t-395 -166.5t-142 -470.5zM475 1767q0 53 28 84t75 31t74.5 -31t27.5 -84t-27.5 -83.5t-74.5 -30.5t-75 31t-28 83zM944 1767q0 53 28 84t75 31t74.5 -31t27.5 -84t-27.5 -83.5t-74.5 -30.5t-75 31t-28 83z" />
<glyph unicode="&#xd8;" horiz-adv-x="1624" d="M113 758q0 182 51.5 328.5t144.5 244t222.5 149.5t285.5 52q170 0 303 -59l82 149h135l-112 -209q136 -97 211 -264t75 -391q0 -185 -51.5 -332t-144.5 -243.5t-222.5 -147.5t-285.5 -51q-185 0 -318 65l-83 -155h-138l117 217q-131 98 -201.5 262t-70.5 385zM270 758 q0 -347 187 -518l596 1106q-111 51 -246 51q-253 0 -395 -167t-142 -472zM557 174q112 -59 260 -59q252 0 393.5 167.5t141.5 475.5q0 177 -51.5 310.5t-147.5 213.5z" />
<glyph unicode="&#xd9;" horiz-adv-x="1478" d="M154 541v983h155v-983q0 -207 108 -317.5t322 -110.5q430 0 430 428v983h156v-983q0 -267 -153 -418.5t-433 -151.5t-432.5 151.5t-152.5 418.5zM494 1915h223l166 -160q26 -26 26 -57q0 -25 -19 -46.5t-50 -21.5q-30 0 -60 27z" />
<glyph unicode="&#xda;" horiz-adv-x="1478" d="M154 541v983h155v-983q0 -207 108 -317.5t322 -110.5q430 0 430 428v983h156v-983q0 -267 -153 -418.5t-433 -151.5t-432.5 151.5t-152.5 418.5zM592 1698q0 31 26 57l166 160h224l-287 -258q-30 -27 -59 -27q-31 0 -50.5 22t-19.5 46z" />
<glyph unicode="&#xdb;" horiz-adv-x="1478" d="M154 541v983h155v-983q0 -207 108 -317.5t322 -110.5q430 0 430 428v983h156v-983q0 -267 -153 -418.5t-433 -151.5t-432.5 151.5t-152.5 418.5zM379 1649l274 262q45 39 95 39q56 0 92 -39l276 -262h-229l-139 174l-140 -174h-229z" />
<glyph unicode="&#xdc;" horiz-adv-x="1478" d="M154 541v983h155v-983q0 -207 108 -317.5t322 -110.5q430 0 430 428v983h156v-983q0 -267 -153 -418.5t-433 -151.5t-432.5 151.5t-152.5 418.5zM418 1767q0 53 27.5 84t74.5 31t75 -31t28 -84q0 -52 -28 -83t-75 -31t-74.5 30.5t-27.5 83.5zM887 1767q0 53 27.5 84 t74.5 31t75 -31t28 -84q0 -52 -28 -83t-75 -31t-74.5 30.5t-27.5 83.5z" />
<glyph unicode="&#xdd;" horiz-adv-x="1327" d="M20 1524h181l473 -723l456 723h177l-557 -862v-662h-160v657zM561 1698q0 30 27 57l166 160h223l-287 -258q-30 -27 -59 -27q-31 0 -50.5 22t-19.5 46z" />
<glyph unicode="&#xde;" horiz-adv-x="1288" d="M164 0v1524h151v-264h439q195 0 318.5 -124.5t123.5 -336.5q0 -214 -128 -337.5t-337 -123.5h-416v-338h-151zM315 471h416q150 0 236 87t86 243q0 151 -84.5 239t-223.5 88h-430v-657z" />
<glyph unicode="&#xdf;" horiz-adv-x="1161" d="M143 0v1161q0 107 32 188t88.5 129t127.5 71.5t154 23.5q181 0 296 -98.5t115 -274.5q0 -122 -77 -244l-113 -159l152 -129q151 -129 151 -293q0 -169 -111.5 -272t-295.5 -103h-185v131h185q134 0 196 65.5t62 174.5q0 57 -26.5 103t-80.5 93l-133 117q-99 87 -25 193 l95 131q59 83 59 192q0 107 -72 172.5t-194 65.5q-250 0 -250 -277v-1161h-150z" />
<glyph unicode="&#xe0;" horiz-adv-x="1224" d="M102 291q0 90 35.5 157t98.5 104.5t139 55t168 17.5h338v127q0 233 -263 233q-125 0 -354 -63l-88 -25l-29 137l86 25q237 67 388 67q87 0 158.5 -21t128 -65t87.5 -117t31 -171v-576l137 -82l-59 -114l-100 59q-73 36 -146 16l-80 -20q-181 -49 -309 -49q-173 0 -270 81 t-97 224zM254 299q0 -180 235 -180q107 0 269 39l123 28v310h-340q-141 0 -214 -47t-73 -150zM356 1563h224l165 -160q27 -27 27 -57q0 -24 -19.5 -46t-50.5 -22q-29 0 -59 27z" />
<glyph unicode="&#xe1;" horiz-adv-x="1224" d="M102 291q0 90 35.5 157t98.5 104.5t139 55t168 17.5h338v127q0 233 -263 233q-125 0 -354 -63l-88 -25l-29 137l86 25q237 67 388 67q87 0 158.5 -21t128 -65t87.5 -117t31 -171v-576l137 -82l-59 -114l-100 59q-73 36 -146 16l-80 -20q-181 -49 -309 -49q-173 0 -270 81 t-97 224zM254 299q0 -180 235 -180q107 0 269 39l123 28v310h-340q-141 0 -214 -47t-73 -150zM485 1346q0 30 27 57l166 160h223l-287 -258q-30 -27 -59 -27q-31 0 -50.5 22t-19.5 46z" />
<glyph unicode="&#xe2;" horiz-adv-x="1224" d="M102 291q0 90 35.5 157t98.5 104.5t139 55t168 17.5h338v127q0 233 -263 233q-125 0 -354 -63l-88 -25l-29 137l86 25q237 67 388 67q87 0 158.5 -21t128 -65t87.5 -117t31 -171v-576l137 -82l-59 -114l-100 59q-73 36 -146 16l-80 -20q-181 -49 -309 -49q-173 0 -270 81 t-97 224zM254 299q0 -180 235 -180q107 0 269 39l123 28v310h-340q-141 0 -214 -47t-73 -150zM256 1266l274 262q45 39 95 39q56 0 92 -39l276 -262h-229l-139 174l-140 -174h-229z" />
<glyph unicode="&#xe3;" horiz-adv-x="1224" d="M102 291q0 90 35.5 157t98.5 104.5t139 55t168 17.5h338v127q0 233 -263 233q-125 0 -354 -63l-88 -25l-29 137l86 25q237 67 388 67q87 0 158.5 -21t128 -65t87.5 -117t31 -171v-576l137 -82l-59 -114l-100 59q-73 36 -146 16l-80 -20q-181 -49 -309 -49q-173 0 -270 81 t-97 224zM182 1350q38 111 111.5 164t150.5 53q88 0 150 -51l102 -74q44 -33 86 -33t77.5 29.5t66.5 109.5l114 -63q-37 -110 -110 -163.5t-150 -53.5q-86 0 -151 51l-101 74q-43 32 -86 32q-91 0 -145 -139zM254 299q0 -180 235 -180q107 0 269 39l123 28v310h-340 q-141 0 -214 -47t-73 -150z" />
<glyph unicode="&#xe4;" horiz-adv-x="1224" d="M102 291q0 90 35.5 157t98.5 104.5t139 55t168 17.5h338v127q0 233 -263 233q-125 0 -354 -63l-88 -25l-29 137l86 25q237 67 388 67q87 0 158.5 -21t128 -65t87.5 -117t31 -171v-576l137 -82l-59 -114l-100 59q-73 36 -146 16l-80 -20q-181 -49 -309 -49q-173 0 -270 81 t-97 224zM254 299q0 -180 235 -180q107 0 269 39l123 28v310h-340q-141 0 -214 -47t-73 -150zM295 1454q0 53 27.5 84t74.5 31t75 -31t28 -84t-28 -84t-75 -31t-74.5 31t-27.5 84zM764 1454q0 53 27.5 84t74.5 31t75 -31t28 -84t-28 -84t-75 -31t-74.5 31t-27.5 84z" />
<glyph unicode="&#xe5;" horiz-adv-x="1224" d="M102 291q0 90 35.5 157t98.5 104.5t139 55t168 17.5h338v127q0 233 -263 233q-125 0 -354 -63l-88 -25l-29 137l86 25q237 67 388 67q87 0 158.5 -21t128 -65t87.5 -117t31 -171v-576l137 -82l-59 -114l-100 59q-73 36 -146 16l-80 -20q-181 -49 -309 -49q-173 0 -270 81 t-97 224zM254 299q0 -180 235 -180q107 0 269 39l123 28v310h-340q-141 0 -214 -47t-73 -150zM379 1421q0 94 64 152.5t161 58.5t162 -58.5t65 -152.5q0 -92 -66 -152.5t-161 -60.5t-160 60t-65 153zM481 1421q0 -53 34 -87t89 -34t90 34t35 87q0 51 -34.5 85t-90.5 34 t-89.5 -34t-33.5 -85z" />
<glyph unicode="&#xe6;" horiz-adv-x="1976" d="M102 291q0 90 35.5 157t98.5 104.5t139 55t168 17.5h338v127q0 233 -263 233q-125 0 -354 -63l-88 -25l-29 137l86 25q237 67 388 67q128 0 223 -47t141 -143q69 97 172 145.5t227 48.5q230 0 365 -138.5t135 -407.5q0 -43 -22 -67.5t-64 -24.5h-762q5 -120 57.5 -203 t136 -120.5t191.5 -37.5q118 0 305 57l113 35l31 -135l-109 -35q-202 -65 -346 -65q-169 0 -291 69q-60 34 -145 17l-199 -41q-8 -2 -60 -12t-70.5 -13.5t-58.5 -10t-68 -9t-54 -2.5q-173 0 -270 81t-97 224zM254 299q0 -180 235 -180q107 0 269 39l213 45q-77 120 -86 293 h-344q-141 0 -214 -47t-73 -150zM1036 625h693q0 79 -20.5 145.5t-61 119t-108.5 82t-157 29.5q-153 0 -245 -101t-101 -275z" />
<glyph unicode="&#xe7;" horiz-adv-x="1077" d="M102 557q0 274 136 421.5t364 147.5q100 0 313 -57l91 -25l-29 -139l-92 25q-201 53 -277 53q-348 0 -348 -426t350 -426q74 0 275 53l92 25l29 -139l-91 -25q-213 -57 -313 -57q-233 0 -366.5 141t-133.5 428zM397 -362l27 88q81 -33 149 -33q44 0 70.5 16t26.5 47 q0 24 -14 39t-38.5 20.5t-58 7t-72.5 -0.5l-8 14l84 164h86l-51 -104q79 0 128.5 -35t49.5 -101q0 -71 -53.5 -117t-147.5 -46q-84 0 -178 41z" />
<glyph unicode="&#xe8;" horiz-adv-x="1198" d="M102 555q0 117 27 213.5t73.5 162.5t110.5 111.5t137.5 66.5t155.5 21q230 0 365 -138.5t135 -407.5q0 -43 -22 -67.5t-64 -24.5h-762q5 -120 57.5 -203t136 -120.5t191.5 -37.5q118 0 305 57l113 35l31 -135l-109 -35q-202 -65 -346 -65q-245 0 -390 145t-145 422z M258 625h692q0 165 -86.5 270.5t-259.5 105.5q-153 0 -245 -101t-101 -275zM356 1563h224l165 -160q27 -27 27 -57q0 -24 -19.5 -46t-50.5 -22q-29 0 -59 27z" />
<glyph unicode="&#xe9;" horiz-adv-x="1198" d="M102 555q0 117 27 213.5t73.5 162.5t110.5 111.5t137.5 66.5t155.5 21q230 0 365 -138.5t135 -407.5q0 -43 -22 -67.5t-64 -24.5h-762q5 -120 57.5 -203t136 -120.5t191.5 -37.5q118 0 305 57l113 35l31 -135l-109 -35q-202 -65 -346 -65q-245 0 -390 145t-145 422z M258 625h692q0 165 -86.5 270.5t-259.5 105.5q-153 0 -245 -101t-101 -275zM506 1346q0 31 26 57l166 160h224l-287 -258q-30 -27 -60 -27q-31 0 -50 21.5t-19 46.5z" />
<glyph unicode="&#xea;" horiz-adv-x="1198" d="M102 555q0 117 27 213.5t73.5 162.5t110.5 111.5t137.5 66.5t155.5 21q230 0 365 -138.5t135 -407.5q0 -43 -22 -67.5t-64 -24.5h-762q5 -120 57.5 -203t136 -120.5t191.5 -37.5q118 0 305 57l113 35l31 -135l-109 -35q-202 -65 -346 -65q-245 0 -390 145t-145 422z M246 1266l274 262q45 39 94 39q57 0 93 -39l276 -262h-229l-140 174l-139 -174h-229zM258 625h692q0 165 -86.5 270.5t-259.5 105.5q-153 0 -245 -101t-101 -275z" />
<glyph unicode="&#xeb;" horiz-adv-x="1198" d="M102 555q0 117 27 213.5t73.5 162.5t110.5 111.5t137.5 66.5t155.5 21q230 0 365 -138.5t135 -407.5q0 -43 -22 -67.5t-64 -24.5h-762q5 -120 57.5 -203t136 -120.5t191.5 -37.5q118 0 305 57l113 35l31 -135l-109 -35q-202 -65 -346 -65q-245 0 -390 145t-145 422z M258 625h692q0 165 -86.5 270.5t-259.5 105.5q-153 0 -245 -101t-101 -275zM276 1454q0 53 28 84t75 31t74.5 -31t27.5 -84t-27.5 -84t-74.5 -31t-75 31t-28 84zM745 1454q0 53 28 84t75 31t74.5 -31t27.5 -84t-27.5 -84t-74.5 -31t-75 31t-28 84z" />
<glyph unicode="&#xec;" horiz-adv-x="491" d="M-43 1563h223l166 -160q27 -27 27 -57q0 -24 -19.5 -46t-50.5 -22q-29 0 -59 27zM170 0v1114h154v-1114h-154z" />
<glyph unicode="&#xed;" horiz-adv-x="491" d="M109 1346q0 31 26 57l166 160h223l-286 -258q-30 -27 -60 -27q-31 0 -50 21.5t-19 46.5zM170 0v1114h154v-1114h-154z" />
<glyph unicode="&#xee;" horiz-adv-x="491" d="M-119 1266l275 262q45 39 94 39q56 0 92 -39l276 -262h-229l-139 174l-139 -174h-230zM170 0v1114h154v-1114h-154z" />
<glyph unicode="&#xef;" horiz-adv-x="491" d="M-88 1454q0 53 27.5 84t74.5 31t75 -31t28 -84t-28 -84t-75 -31t-74.5 31t-27.5 84zM170 0v1114h154v-1114h-154zM381 1454q0 53 27.5 84t74.5 31t75 -31t28 -84t-28 -84t-75 -31t-74.5 31t-27.5 84z" />
<glyph unicode="&#xf0;" horiz-adv-x="1277" d="M123 532q0 107 30 200t89.5 168.5t160 119t230.5 43.5q118 0 352 -66v80q0 132 -51 217l-305 -168v150l219 115q-65 39 -193 39h-143v133h141q221 0 330 -93l182 105v-150l-100 -55q72 -119 72 -293v-571q0 -234 -132 -376t-376 -142q-122 0 -219.5 43t-159.5 118 t-94.5 172.5t-32.5 210.5zM274 532q0 -184 94 -295.5t265 -111.5q178 0 265 103.5t87 285.5v350q-206 54 -342 58q-369 0 -369 -390z" />
<glyph unicode="&#xf1;" horiz-adv-x="1193" d="M154 0v926q0 119 118 147q192 49 353 49q110 0 191.5 -30.5t129.5 -86t71 -126.5t23 -158v-721h-149v707q0 130 -65 203t-218 73q-123 0 -305 -45v-938h-149zM178 1350q38 111 111.5 164t150.5 53q88 0 150 -51l102 -74q44 -33 86 -33t77.5 29.5t66.5 109.5l114 -63 q-37 -110 -110 -163.5t-150 -53.5q-86 0 -151 51l-101 74q-43 32 -86 32q-91 0 -145 -139z" />
<glyph unicode="&#xf2;" horiz-adv-x="1249" d="M102 557q0 270 142.5 419.5t384.5 149.5q241 0 379.5 -149t138.5 -420q0 -270 -142 -419.5t-384 -149.5q-240 0 -379.5 150.5t-139.5 418.5zM258 557q0 -210 97 -324t274 -114t270.5 113.5t93.5 324.5q0 207 -97.5 322.5t-274.5 115.5q-176 0 -269.5 -114.5t-93.5 -323.5 zM397 1563h224l165 -160q27 -27 27 -57q0 -24 -19.5 -46t-50.5 -22q-29 0 -59 27z" />
<glyph unicode="&#xf3;" horiz-adv-x="1249" d="M102 557q0 270 142.5 419.5t384.5 149.5q241 0 379.5 -149t138.5 -420q0 -270 -142 -419.5t-384 -149.5q-240 0 -379.5 150.5t-139.5 418.5zM258 557q0 -210 97 -324t274 -114t270.5 113.5t93.5 324.5q0 207 -97.5 322.5t-274.5 115.5q-176 0 -269.5 -114.5t-93.5 -323.5 zM461 1346q0 31 26 57l166 160h224l-287 -258q-30 -27 -60 -27q-31 0 -50 21.5t-19 46.5z" />
<glyph unicode="&#xf4;" horiz-adv-x="1249" d="M102 557q0 270 142.5 419.5t384.5 149.5q241 0 379.5 -149t138.5 -420q0 -270 -142 -419.5t-384 -149.5q-240 0 -379.5 150.5t-139.5 418.5zM258 557q0 -210 97 -324t274 -114t270.5 113.5t93.5 324.5q0 207 -97.5 322.5t-274.5 115.5q-176 0 -269.5 -114.5t-93.5 -323.5 zM264 1266l275 262q45 39 94 39q56 0 92 -39l276 -262h-229l-139 174l-139 -174h-230z" />
<glyph unicode="&#xf5;" horiz-adv-x="1249" d="M102 557q0 270 142.5 419.5t384.5 149.5q241 0 379.5 -149t138.5 -420q0 -270 -142 -419.5t-384 -149.5q-240 0 -379.5 150.5t-139.5 418.5zM207 1350q38 111 111.5 164t150.5 53q87 0 149 -51l103 -74q44 -33 86 -33t77 29.5t66 109.5l115 -63q-37 -110 -110 -163.5 t-150 -53.5q-87 0 -152 51l-100 74q-43 32 -86 32q-91 0 -145 -139zM258 557q0 -210 97 -324t274 -114t270.5 113.5t93.5 324.5q0 207 -97.5 322.5t-274.5 115.5q-176 0 -269.5 -114.5t-93.5 -323.5z" />
<glyph unicode="&#xf6;" horiz-adv-x="1249" d="M102 557q0 270 142.5 419.5t384.5 149.5q241 0 379.5 -149t138.5 -420q0 -270 -142 -419.5t-384 -149.5q-240 0 -379.5 150.5t-139.5 418.5zM258 557q0 -210 97 -324t274 -114t270.5 113.5t93.5 324.5q0 207 -97.5 322.5t-274.5 115.5q-176 0 -269.5 -114.5t-93.5 -323.5 zM299 1454q0 53 27.5 84t74.5 31t75 -31t28 -84t-28 -84t-75 -31t-74.5 31t-27.5 84zM768 1454q0 53 27.5 84t74.5 31t75 -31t28 -84t-28 -84t-75 -31t-74.5 31t-27.5 84z" />
<glyph unicode="&#xf7;" d="M119 530v146h968v-146h-968zM502 182q0 50 26.5 80.5t71.5 30.5t71.5 -30.5t26.5 -80.5t-26.5 -80t-71.5 -30t-71.5 30t-26.5 80zM502 1022q0 50 26.5 80.5t71.5 30.5t71.5 -30.5t26.5 -80.5t-26.5 -80.5t-71.5 -30.5t-71.5 30.5t-26.5 80.5z" />
<glyph unicode="&#xf8;" horiz-adv-x="1249" d="M102 557q0 270 142.5 419.5t384.5 149.5q119 0 217 -39l63 121h127l-92 -176q203 -145 203 -475q0 -270 -142 -419.5t-384 -149.5q-107 0 -205 32l-68 -126h-127l94 180q-103 70 -158 193t-55 290zM258 557q0 -243 125 -356l399 764q-75 32 -161 32q-175 0 -269 -115.5 t-94 -324.5zM479 143q62 -26 150 -26q176 0 270 114t94 326q0 230 -119 346z" />
<glyph unicode="&#xf9;" horiz-adv-x="1193" d="M154 393v721h149v-706q0 -131 65 -204t218 -73q123 0 305 45v938h149v-926q0 -119 -118 -147q-192 -49 -353 -49q-110 0 -191.5 30.5t-129.5 86t-71 126.5t-23 158zM336 1563h223l166 -160q27 -27 27 -57q0 -24 -19.5 -46t-50.5 -22q-29 0 -59 27z" />
<glyph unicode="&#xfa;" horiz-adv-x="1193" d="M154 393v721h149v-706q0 -131 65 -204t218 -73q123 0 305 45v938h149v-926q0 -119 -118 -147q-192 -49 -353 -49q-110 0 -191.5 30.5t-129.5 86t-71 126.5t-23 158zM453 1346q0 31 26 57l166 160h223l-286 -258q-30 -27 -60 -27q-31 0 -50 21.5t-19 46.5z" />
<glyph unicode="&#xfb;" horiz-adv-x="1193" d="M154 393v721h149v-706q0 -131 65 -204t218 -73q123 0 305 45v938h149v-926q0 -119 -118 -147q-192 -49 -353 -49q-110 0 -191.5 30.5t-129.5 86t-71 126.5t-23 158zM240 1266l274 262q45 39 94 39q56 0 92 -39l277 -262h-229l-140 174l-139 -174h-229z" />
<glyph unicode="&#xfc;" horiz-adv-x="1193" d="M154 393v721h149v-706q0 -131 65 -204t218 -73q123 0 305 45v938h149v-926q0 -119 -118 -147q-192 -49 -353 -49q-110 0 -191.5 30.5t-129.5 86t-71 126.5t-23 158zM266 1454q0 53 28 84t75 31t74.5 -31t27.5 -84t-27.5 -84t-74.5 -31t-75 31t-28 84zM735 1454 q0 53 28 84t75 31t74.5 -31t27.5 -84t-27.5 -84t-74.5 -31t-75 31t-28 84z" />
<glyph unicode="&#xfd;" horiz-adv-x="1085" d="M49 1114h172l359 -979l305 979h168l-426 -1266q-38 -113 -112.5 -167t-192.5 -54q-83 0 -222 37l23 139q145 -36 201 -36q72 0 108 33t51 94l15 55zM449 1346q0 31 26 57l166 160h223l-286 -258q-30 -27 -60 -27q-31 0 -50 21.5t-19 46.5z" />
<glyph unicode="&#xfe;" horiz-adv-x="1222" d="M154 -381v1927l147 31v-500q199 45 317 45q239 0 370.5 -147t131.5 -414q0 -271 -130.5 -420t-371.5 -149q-107 0 -317 63v-405zM301 188q204 -52 309 -55q359 0 359 426q0 95 -20.5 170.5t-63.5 133.5t-114 89t-167 31q-112 0 -303 -45v-750z" />
<glyph unicode="&#xff;" horiz-adv-x="1085" d="M49 1114h172l359 -979l305 979h168l-426 -1266q-38 -113 -112.5 -167t-192.5 -54q-83 0 -222 37l23 139q145 -36 201 -36q72 0 108 33t51 94l15 55zM229 1454q0 53 28 84t75 31t74.5 -31t27.5 -84t-27.5 -84t-74.5 -31t-75 31t-28 84zM698 1454q0 53 28 84t75 31 t74.5 -31t27.5 -84t-27.5 -84t-74.5 -31t-75 31t-28 84z" />
<glyph unicode="&#x152;" horiz-adv-x="2271" d="M113 758q0 357 184.5 561.5t493.5 204.5h1361v-140h-821v-536h723v-137h-723v-572h828v-139h-1362q-151 0 -277 51t-216.5 146.5t-140.5 239t-50 321.5zM270 758q0 -295 139.5 -457t393.5 -162h371v1245v5h-357q-257 0 -402 -170.5t-145 -460.5z" />
<glyph unicode="&#x153;" horiz-adv-x="2086" d="M102 557q0 270 142.5 419.5t384.5 149.5q154 0 266.5 -63t173.5 -184q62 126 173.5 188.5t252.5 62.5q230 0 365 -138.5t135 -407.5q0 -43 -22 -67.5t-64 -24.5h-762q5 -120 57.5 -203t136 -120.5t191.5 -37.5q118 0 305 57l113 35l30 -135l-108 -35q-202 -65 -346 -65 q-160 0 -277.5 62.5t-181.5 185.5q-63 -121 -177 -184.5t-269 -63.5q-240 0 -379.5 150.5t-139.5 418.5zM258 557q0 -210 97 -324t274 -114t270.5 113.5t93.5 324.5q0 207 -97.5 322.5t-274.5 115.5q-176 0 -269.5 -114.5t-93.5 -323.5zM1147 625h692q0 165 -86.5 270.5 t-259.5 105.5q-153 0 -245 -101t-101 -275z" />
<glyph unicode="&#x178;" horiz-adv-x="1327" d="M20 1524h181l473 -723l456 723h177l-557 -862v-662h-160v657zM340 1769q0 53 27.5 84t74.5 31t75 -31t28 -84q0 -52 -28 -83t-75 -31t-74.5 30.5t-27.5 83.5zM809 1769q0 53 27.5 84t74.5 31t75 -31t28 -84q0 -52 -28 -83t-75 -31t-74.5 30.5t-27.5 83.5z" />
<glyph unicode="&#x2c6;" horiz-adv-x="1087" d="M207 1266l274 262q45 39 94 39q57 0 93 -39l276 -262h-229l-140 174l-139 -174h-229z" />
<glyph unicode="&#x2dc;" horiz-adv-x="1087" d="M119 1350q38 111 111.5 164t150.5 53q87 0 149 -51l103 -74q44 -33 86 -33t77 29.5t66 109.5l115 -63q-37 -110 -110 -163.5t-150 -53.5q-87 0 -152 51l-100 74q-43 32 -86 32q-92 0 -146 -139z" />
<glyph unicode="&#x2000;" horiz-adv-x="975" />
<glyph unicode="&#x2001;" horiz-adv-x="1950" />
<glyph unicode="&#x2002;" horiz-adv-x="975" />
<glyph unicode="&#x2003;" horiz-adv-x="1950" />
<glyph unicode="&#x2004;" horiz-adv-x="650" />
<glyph unicode="&#x2005;" horiz-adv-x="487" />
<glyph unicode="&#x2006;" horiz-adv-x="325" />
<glyph unicode="&#x2007;" horiz-adv-x="325" />
<glyph unicode="&#x2008;" horiz-adv-x="243" />
<glyph unicode="&#x2009;" horiz-adv-x="390" />
<glyph unicode="&#x200a;" horiz-adv-x="108" />
<glyph unicode="&#x2010;" horiz-adv-x="845" d="M123 594v149h600v-149h-600z" />
<glyph unicode="&#x2011;" horiz-adv-x="845" d="M123 594v149h600v-149h-600z" />
<glyph unicode="&#x2012;" horiz-adv-x="845" d="M123 594v149h600v-149h-600z" />
<glyph unicode="&#x2013;" d="M123 594v147h962v-147h-962z" />
<glyph unicode="&#x2014;" horiz-adv-x="2048" d="M123 594v145h1802v-145h-1802z" />
<glyph unicode="&#x2018;" horiz-adv-x="425" d="M80 1163l94 336q19 64 80 64q44 0 64.5 -30t9.5 -73l-78 -297h-170z" />
<glyph unicode="&#x2019;" horiz-adv-x="425" d="M94 1266l78 297h170l-94 -336q-19 -64 -80 -64q-44 0 -64.5 30t-9.5 73z" />
<glyph unicode="&#x201a;" horiz-adv-x="425" d="M94 -84l78 297h170l-94 -336q-18 -63 -80 -63q-45 0 -65 29.5t-9 72.5z" />
<glyph unicode="&#x201c;" horiz-adv-x="784" d="M80 1163l94 336q19 64 80 64q44 0 64.5 -30t9.5 -73l-78 -297h-170zM438 1163l94 336q19 64 80 64q44 0 64.5 -30t9.5 -73l-78 -297h-170z" />
<glyph unicode="&#x201d;" horiz-adv-x="784" d="M94 1266l78 297h170l-94 -336q-19 -64 -80 -64q-44 0 -64.5 30t-9.5 73zM453 1266l77 297h170l-94 -336q-19 -64 -80 -64q-44 0 -64 30t-9 73z" />
<glyph unicode="&#x201e;" horiz-adv-x="784" d="M94 -84l78 297h170l-94 -336q-18 -63 -80 -63q-45 0 -65 29.5t-9 72.5zM453 -84l77 297h170l-94 -336q-18 -63 -80 -63q-44 0 -64 29.5t-9 72.5z" />
<glyph unicode="&#x2022;" horiz-adv-x="886" d="M199 682q0 130 65.5 202t181.5 72q118 0 184 -72t66 -202t-66 -202t-184 -72q-116 0 -181.5 72t-65.5 202z" />
<glyph unicode="&#x2026;" horiz-adv-x="1277" d="M113 96q0 54 27.5 84.5t74.5 30.5t74.5 -30.5t27.5 -84.5t-27 -84t-75 -30t-75 30t-27 84zM539 96q0 54 27.5 84.5t74.5 30.5t74.5 -30.5t27.5 -84.5t-27 -84t-75 -30t-75 30t-27 84zM965 96q0 54 27.5 84.5t74.5 30.5t74.5 -30.5t27.5 -84.5t-27 -84t-75 -30t-75 30 t-27 84z" />
<glyph unicode="&#x202f;" horiz-adv-x="390" />
<glyph unicode="&#x2039;" horiz-adv-x="716" d="M109 575q0 52 45 97l297 289h194l-391 -386l391 -385h-194l-297 289q-45 45 -45 96z" />
<glyph unicode="&#x203a;" horiz-adv-x="716" d="M72 190l391 385l-391 386h194l297 -289q45 -45 45 -97q0 -51 -45 -96l-297 -289h-194z" />
<glyph unicode="&#x205f;" horiz-adv-x="487" />
<glyph unicode="&#x20ac;" d="M61 555v135h156v146h-156v135h156q0 274 142 422.5t376 148.5q101 0 314 -57l90 -25l-29 -143l-92 24q-197 52 -279 52q-178 0 -269 -102t-91 -320h508v-135h-510v-146h510v-135h-508q0 -218 91 -320t269 -102q86 0 279 51l92 25l29 -143l-90 -25q-213 -57 -314 -57 q-234 0 -376 148.5t-142 422.5h-156z" />
<glyph unicode="&#x2122;" horiz-adv-x="1779" d="M121 1415v109h624v-109h-249v-731h-127v731h-248zM889 684v774q0 35 24.5 55.5t59.5 20.5q74 0 94 -61l199 -627l200 622q18 60 93 60q40 0 61.5 -18t21.5 -52v-774h-112v625l-197 -580q-15 -45 -69 -45q-55 0 -70 45l-195 574v-619h-110z" />
<glyph unicode="&#x25fc;" horiz-adv-x="1116" d="M0 0v1116h1116v-1116h-1116z" />
<glyph unicode="&#xfb01;" horiz-adv-x="1226" d="M41 956v138h182v118q0 172 86 263.5t242 91.5q67 0 229 -33l-22 -139q-142 32 -209 32q-95 0 -134.5 -53t-41.5 -172v-108h688v-1094h-158v956h-530v-956h-150v956h-182zM879 1466q0 53 27.5 84t74.5 31t74.5 -31t27.5 -84t-27.5 -83.5t-74.5 -30.5t-74.5 30.5 t-27.5 83.5z" />
<glyph unicode="&#xfb02;" horiz-adv-x="1210" d="M41 956v138h182v118q0 172 86 263.5t242 91.5q97 0 352 -37l154 45v-1575h-152v1393q-237 34 -356 34q-95 0 -135.5 -53t-40.5 -172v-108h354v-138h-354v-956h-150v956h-182z" />
</font>
</defs>
</svg>
